<svg width="24" height="24" viewBox="0 0 24 24" fill="none" xmlns="http://www.w3.org/2000/svg">
<path d="M0 12C0 5.37258 5.37258 0 12 0V0C18.6274 0 24 5.37258 24 12V12C24 18.6274 18.6274 24 12 24V24C5.37258 24 0 18.6274 0 12V12Z" fill="#A5ADBA"/>
<path d="M0 12C0 5.37258 5.37258 0 12 0V0C18.6274 0 24 5.37258 24 12V12C24 18.6274 18.6274 24 12 24V24C5.37258 24 0 18.6274 0 12V12Z" fill="white" fill-opacity="0.75"/>
<path d="M8.69087 9.84029C8.93416 9.59699 9.32855 9.59678 9.57211 9.83981L12 12.2624L14.4279 9.83981C14.6714 9.59678 15.0658 9.59699 15.3091 9.84029V9.84029C15.5526 10.0838 15.5526 10.4785 15.3091 10.722L12.7071 13.324C12.3166 13.7146 11.6834 13.7146 11.2929 13.324L8.69087 10.722C8.44738 10.4785 8.44738 10.0838 8.69087 9.84029V9.84029Z" fill="#A5ADBA"/>
<path d="M8.69087 9.84029C8.93416 9.59699 9.32855 9.59678 9.57211 9.83981L12 12.2624L14.4279 9.83981C14.6714 9.59678 15.0658 9.59699 15.3091 9.84029V9.84029C15.5526 10.0838 15.5526 10.4785 15.3091 10.722L12.7071 13.324C12.3166 13.7146 11.6834 13.7146 11.2929 13.324L8.69087 10.722C8.44738 10.4785 8.44738 10.0838 8.69087 9.84029V9.84029Z" fill="black" fill-opacity="0.25"/>
</svg>
